#!OML:ASF F:\VICON\USERDATA\INSTALL\rory3\rory3.ASF
:FULLY-SPECIFIED
:DEGREES
520
root -1.5188 16.987 -1.86177 17.1909 49.5036 8.22511
lowerback 12.0276 -2.921 -6.00326
upperback 1.12861 -4.50719 2.29852
thorax -4.89092 -2.07066 6.52115
lowerneck -21.4781 -10.7615 -14.5159
upperneck 14.9134 -12.6864 11.5744
head 9.95526 -5.55585 4.38405
rclavicle -4.17448e-014 7.15625e-015
rhumerus -21.6235 2.82984 -71.8252
rradius 118.619
rwrist 1.55782
rhand -18.5193 19.5732
rfingers 7.12502
rthumb 7.76912 -10.2641
lclavicle -4.17448e-014 7.15625e-015
lhumerus 7.01822 -29.5931 87.647
lradius 119.043
lwrist -1.00143
lhand -5.76355 5.82312
lfingers 7.12502
lthumb 20.0596 34.8076
rfemur -19.556 11.3613 -10.4772
rtibia 39.1893
rfoot -12.388 -8.8282
rtoes -13.569
lfemur -16.6407 -0.0125002 -8.39637
ltibia 32.0653
lfoot -15.1364 -0.0866955
ltoes -33.3316
521
root -1.34246 17.0826 -1.93552 16.6308 48.9081 7.56995
lowerback 11.5469 -3.01995 -5.56532
upperback 1.02032 -4.55063 2.50504
thorax -4.74909 -2.10487 6.46653
lowerneck -21.4496 -10.6295 -14.4879
upperneck 15.3378 -12.4788 11.2416
head 10.0432 -5.4923 4.30284
rclavicle -5.52621e-014 -8.74653e-015
rhumerus -22.8099 3.81404 -73.3692
rradius 119.896
rwrist 1.75201
rhand -18.1623 19.9913
rfingers 7.12502
rthumb 8.11366 -9.83299
lclavicle -5.52621e-014 -8.74653e-015
lhumerus 6.34999 -29.6411 87.9308
lradius 119.042
lwrist -0.938828
lhand -6.15056 6.10143
lfingers 7.12502
lthumb 19.6876 35.1245
rfemur -19.7973 11.5246 -10.531
rtibia 38.8216
rfoot -9.75986 -10.4016
rtoes -13.5757
lfemur -15.9707 -0.375522 -8.74576
ltibia 31.8506
lfoot -14.5063 0.599992
ltoes -33.3898
522
root -1.16847 17.186 -1.99524 16.0228 48.3351 7.09027
lowerback 11.5711 -3.26866 -5.00572
upperback 0.690704 -4.82209 2.45779
thorax -5.12189 -2.22862 6.15581
lowerneck -21.2176 -10.3671 -14.2987
upperneck 15.942 -12.2105 11.0177
head 10.1513 -5.38662 4.25453
rclavicle -2.54444e-014 -5.24792e-014
rhumerus -24.2707 4.98534 -75.3976
rradius 121.05
rwrist 1.75116
rhand -18.063 20.4824
rfingers 7.12502
rthumb 8.20951 -9.33813
lclavicle -2.54444e-014 -5.24792e-014
lhumerus 5.06858 -29.4348 87.9891
lradius 119.189
lwrist -0.654199
lhand -6.07719 6.10202
lfingers 7.12502
lthumb 19.7582 35.1178
rfemur -19.8675 11.7868 -10.4521
rtibia 38.5162
rfoot -7.30918 -12.2809
rtoes -12.632
lfemur -15.126 -0.767847 -9.12536
ltibia 31.6366
lfoot -13.7723 0.716778
ltoes -33.3881
523
root -0.997384 17.2959 -2.04951 15.2699 47.7807 6.59302
lowerback 11.3776 -3.44539 -4.78824
upperback 0.637145 -5.01257 2.63685
thorax -5.04661 -2.32881 6.23542
lowerneck -21.0587 -10.117 -14.1799
upperneck 16.2993 -11.8747 10.6832
head 10.172 -5.26538 4.18535
rclavicle 3.16068e-014 -1.19271e-014
rhumerus -25.1151 6.02364 -76.9594
rradius 122.042
rwrist 1.27028
rhand -18.0746 20.9594
rfingers 7.12502
rthumb 8.19835 -8.86158
lclavicle 3.16068e-014 -1.19271e-014
lhumerus 4.2265 -29.1618 88.1086
lradius 119.292
lwrist -0.45483
lhand -5.82804 6.14354
lfingers 7.12502
lthumb 19.9977 35.1345
rfemur -19.8544 12.0626 -10.1442
rtibia 38.3358
rfoot -5.28839 -14.3207
rtoes -10.5883
lfemur -14.1967 -1.10716 -9.40984
ltibia 31.4484
lfoot -12.7877 0.60192
ltoes -34.2239
524
root -0.834092 17.4093 -2.09984 14.7215 47.1218 6.21337
lowerback 10.9473 -3.53957 -4.84291
upperback 0.66357 -5.1161 2.87256
thorax -4.73782 -2.39187 6.49065
lowerneck -21.0858 -9.87172 -14.118
upperneck 16.626 -11.5007 10.368
head 10.2165 -5.12224 4.13278
rclavicle 2.04748e-014 -2.94201e-014
rhumerus -25.725 7.03827 -78.2888
rradius 122.935
rwrist 0.547982
rhand -18.5216 21.1636
rfingers 7.12502
rthumb 7.76687 -8.67374
lclavicle 2.04748e-014 -2.94201e-014
lhumerus 3.63436 -28.9617 88.2341
lradius 119.433
lwrist -0.348302
lhand -5.81694 6.23067
lfingers 7.12502
lthumb 20.0083 35.2205
rfemur -20.0503 11.9241 -9.77098
rtibia 38.343
rfoot -3.62397 -16.0524
rtoes -8.54528
lfemur -13.4617 -1.23887 -9.73115
ltibia 31.2917
lfoot -11.4373 0.388026
ltoes -34.8043
525
root -0.683738 17.5174 -2.1481 14.2997 46.3583 5.94026
lowerback 10.5928 -3.60981 -5.00044
upperback 0.657856 -5.20812 3.0402
thorax -4.50325 -2.44439 6.73754
lowerneck -21.2086 -9.65391 -14.0384
upperneck 16.9866 -11.166 10.0857
head 10.2983 -4.98989 4.07925
rclavicle 3.97569e-014 -1.74931e-014
rhumerus -26.3264 8.05968 -79.6943
rradius 123.774
rwrist -0.386551
rhand -19.0701 20.992
rfingers 7.12502
rthumb 7.23746 -8.86425
lclavicle 3.97569e-014 -1.74931e-014
lhumerus 2.94901 -28.7729 88.2328
lradius 119.726
lwrist -0.119633
lhand -6.2546 6.24958
lfingers 7.12502
lthumb 19.5876 35.2828
rfemur -20.4123 11.3992 -9.32543
rtibia 38.584
rfoot -3.21835 -17.0584
rtoes -3.95085
lfemur -12.8369 -1.23695 -10.0439
ltibia 31.1744
lfoot -9.88864 -0.114421
ltoes -34.9582
526
root -0.543853 17.6258 -2.18454 13.8731 45.4995 5.76262
lowerback 10.2483 -3.63511 -5.39298
upperback 0.700119 -5.26904 3.16627
thorax -4.21024 -2.48196 7.06682
lowerneck -21.2299 -9.46947 -14.0028
upperneck 17.285 -10.9046 9.93701
head 10.3628 -4.88335 4.06968
rclavicle -3.91606e-014 -3.97569e-014
rhumerus -26.8771 8.97015 -81.1424
rradius 124.516
rwrist -1.59702
rhand -19.4329 20.6762
rfingers 7.12502
rthumb 6.88723 -9.19182
lclavicle -3.91606e-014 -3.97569e-014
lhumerus 2.17799 -28.6386 88.1804
lradius 120.068
lwrist 0.115064
lhand -6.6598 6.3115
lfingers 7.12502
lthumb 19.198 35.3839
rfemur -20.7851 10.8226 -8.76911
rtibia 39.0847
rfoot -4.37926 -17.0812
rtoes 5.15337
lfemur -12.1621 -1.08975 -10.3412
ltibia 31.1005
lfoot -8.16466 -1.04969
ltoes -35.2584
527
root -0.408067 17.7363 -2.21274 13.6117 44.5133 5.8217
lowerback 9.82756 -3.63487 -6.03651
upperback 0.781457 -5.31999 3.23678
thorax -3.81663 -2.51844 7.46857
lowerneck -21.3084 -9.28643 -14.0504
upperneck 17.5733 -10.6197 9.83521
head 10.4397 -4.76523 4.09297
rclavicle -5.80451e-014 -1.27222e-014
rhumerus -27.3833 9.88863 -82.5093
rradius 125.135
rwrist -2.8685
rhand -19.8234 20.7219
rfingers 7.12502
rthumb 6.51029 -9.158
lclavicle -5.80451e-014 -1.27222e-014
lhumerus 1.47183 -28.389 88.1267
lradius 120.373
lwrist 0.137711
lhand -6.81614 6.32458
lfingers 7.12502
lthumb 19.0476 35.4119
rfemur -21.252 10.2086 -8.2779
rtibia 39.8233
rfoot -5.22056 -16.1959
rtoes 10.6643
lfemur -11.5191 -0.751449 -10.789
ltibia 31.0226
lfoot -6.21536 -2.14846
ltoes -36.3445
528
root -0.277122 17.8425 -2.24497 13.3298 43.4203 5.99295
lowerback 9.61738 -3.60764 -6.62109
upperback 0.865259 -5.33954 3.16875
thorax -3.56103 -2.53584 7.70525
lowerneck -21.4222 -9.10471 -14.0001
upperneck 17.8359 -10.3515 9.69703
head 10.5081 -4.65168 4.08347
rclavicle 7.09661e-014 -2.8625e-014
rhumerus -27.8835 10.7003 -83.9521
rradius 125.654
rwrist -4.02241
rhand -20.0653 21.0773
rfingers 7.12502
rthumb 6.27675 -8.80975
lclavicle 7.09661e-014 -2.8625e-014
lhumerus 0.873144 -28.185 87.8695
lradius 120.619
lwrist 0.395994
lhand -7.2925 6.23441
lfingers 7.12502
lthumb 18.5895 35.3662
rfemur -21.7572 9.56328 -7.78152
rtibia 40.7607
rfoot -5.54676 -15.2568
rtoes 9.21521
lfemur -10.8403 -0.43347 -11.2903
ltibia 30.9066
lfoot -3.98585 -3.03972
ltoes -36.9621
529
root -0.153469 17.9456 -2.27963 12.9305 42.4619 6.16396
lowerback 9.66101 -3.59175 -7.00475
upperback 0.91797 -5.36981 2.98486
thorax -3.50712 -2.55079 7.73004
lowerneck -21.5376 -8.95986 -13.8875
upperneck 18.2185 -10.1739 9.60028
head 10.6322 -4.57073 4.06419
rclavicle 1.05555e-013 -1.19271e-014
rhumerus -28.4798 11.2894 -85.499
rradius 126.175
rwrist -4.7377
rhand -20.069 21.4167
rfingers 7.12502
rthumb 6.27323 -8.47043
lclavicle 1.05555e-013 -1.19271e-014
lhumerus 0.207619 -28.0526 87.4883
lradius 120.898
lwrist 0.87402
lhand -7.83494 5.93233
lfingers 7.12502
lthumb 18.0676 35.1132
rfemur -22.1233 8.97528 -7.11358
rtibia 41.8615
rfoot -6.22964 -14.6793
rtoes 6.51355
lfemur -10.1767 -0.233544 -11.6799
ltibia 30.8064
lfoot -1.49 -4.06614
ltoes -36.7526
530
root -0.0319939 18.0477 -2.31394 12.4776 41.7284 6.29995
lowerback 9.85984 -3.60712 -7.18865
upperback 0.886143 -5.43413 2.75971
thorax -3.64521 -2.57262 7.61981
lowerneck -21.5373 -8.82591 -13.84
upperneck 18.6629 -10.0316 9.58475
head 10.7725 -4.50488 4.0825
rclavicle 3.63776e-014 2.46493e-014
rhumerus -29.2708 11.7387 -87.0162
rradius 126.726
rwrist -4.96372
rhand -20.0473 21.5646
rfingers 7.12502
rthumb 6.29418 -8.32193
lclavicle 3.63776e-014 2.46493e-014
lhumerus -0.540212 -27.9044 87.1721
lradius 121.283
lwrist 1.3058
lhand -7.79458 5.94836
lfingers 7.12502
lthumb 18.1065 35.1256
rfemur -22.3488 8.29037 -6.24285
rtibia 43.0811
rfoot -6.77053 -13.9855
rtoes 5.008
lfemur -9.68684 -0.145269 -11.934
ltibia 30.8085
lfoot 1.41065 -5.50638
ltoes -36.2418
531
root 0.0919333 18.1435 -2.35087 11.9909 41.1171 6.36039
lowerback 10.0466 -3.65982 -7.2201
upperback 0.849892 -5.5302 2.5631
thorax -3.78726 -2.61182 7.45637
lowerneck -21.4648 -8.68744 -13.7852
upperneck 19.0308 -9.86078 9.45764
head 10.8612 -4.4408 4.06445
rclavicle -6.99722e-014 2.14687e-014
rhumerus -30.0024 12.1893 -88.3763
rradius 127.166
rwrist -4.77017
rhand -19.9269 21.6756
rfingers 7.12502
rthumb 6.41037 -8.20744
lclavicle -6.99722e-014 2.14687e-014
lhumerus -1.20977 -27.7023 86.9747
lradius 121.565
lwrist 1.68915
lhand -8.05628 6.04317
lfingers 7.12502
lthumb 17.8547 35.2435
rfemur -22.5419 7.29875 -5.22271
rtibia 44.373
rfoot -6.92954 -12.9725
rtoes 4.48519
lfemur -9.40307 -0.147426 -12.084
ltibia 30.9394
lfoot 4.68153 -6.81458
ltoes -35.0961
532
root 0.216725 18.2288 -2.39348 11.4929 40.5637 6.41376
lowerback 10.3257 -3.70897 -7.23899
upperback 0.778623 -5.62403 2.45239
thorax -4.01108 -2.64431 7.38902
lowerneck -21.2733 -8.57375 -13.8611
upperneck 19.2876 -9.66686 9.24295
head 10.8871 -4.38968 4.03982
rclavicle 4.23411e-014 -2.14687e-014
rhumerus -30.741 12.6755 -89.4643
rradius 127.549
rwrist -4.12817
rhand -19.8148 21.7742
rfingers 7.12502
rthumb 6.51865 -8.1055
lclavicle 4.23411e-014 -2.14687e-014
lhumerus -1.93311 -27.4028 87.0299
lradius 121.73
lwrist 1.84324
lhand -8.45408 5.98155
lfingers 7.12502
lthumb 17.4719 35.2164
rfemur -22.7096 6.13965 -4.17816
rtibia 45.6999
rfoot -7.08387 -11.9726
rtoes 4.53834
lfemur -9.29228 -0.196035 -12.2127
ltibia 31.2414
lfoot 8.01837 -7.79994
ltoes -32.9325
